<svg xmlns="http://www.w3.org/2000/svg" version="1.1" xmlns:xlink="http://www.w3.org/1999/xlink" xmlns:svgjs="http://svgjs.dev/svgjs" width="106" height="106"><svg height="106" width="106" viewBox="0 0 106 106" id="SvgjsSvg1032" xmlns:xlink="http://www.w3.org/1999/xlink" xmlns="http://www.w3.org/2000/svg" xmlns:svg="http://www.w3.org/2000/svg">
  <g id="SvgjsG1031" transform="translate(53, 53)">
    <g id="SvgjsG1030" mask="url(#holes)">
      <circle r="43" fill="none" stroke="black" stroke-width="9"></circle>
      <g id="SvgjsG1029">
        <polygon id="SvgjsPolygon1028" stroke="black" stroke-width="3" stroke-linejoin="round" points="46,3 51,0 46,-3"></polygon>
        <use xlink:href="#cog" transform="rotate(11.25)"></use>
        <use xlink:href="#cog" transform="rotate(22.50)"></use>
        <use xlink:href="#cog" transform="rotate(33.75)"></use>
        <use xlink:href="#cog" transform="rotate(45.00)"></use>
        <use xlink:href="#cog" transform="rotate(56.25)"></use>
        <use xlink:href="#cog" transform="rotate(67.50)"></use>
        <use xlink:href="#cog" transform="rotate(78.75)"></use>
        <use xlink:href="#cog" transform="rotate(90.00)"></use>
        <use xlink:href="#cog" transform="rotate(101.25)"></use>
        <use xlink:href="#cog" transform="rotate(112.50)"></use>
        <use xlink:href="#cog" transform="rotate(123.75)"></use>
        <use xlink:href="#cog" transform="rotate(135.00)"></use>
        <use xlink:href="#cog" transform="rotate(146.25)"></use>
        <use xlink:href="#cog" transform="rotate(157.50)"></use>
        <use xlink:href="#cog" transform="rotate(168.75)"></use>
        <use xlink:href="#cog" transform="rotate(180.00)"></use>
        <use xlink:href="#cog" transform="rotate(191.25)"></use>
        <use xlink:href="#cog" transform="rotate(202.50)"></use>
        <use xlink:href="#cog" transform="rotate(213.75)"></use>
        <use xlink:href="#cog" transform="rotate(225.00)"></use>
        <use xlink:href="#cog" transform="rotate(236.25)"></use>
        <use xlink:href="#cog" transform="rotate(247.50)"></use>
        <use xlink:href="#cog" transform="rotate(258.75)"></use>
        <use xlink:href="#cog" transform="rotate(270.00)"></use>
        <use xlink:href="#cog" transform="rotate(281.25)"></use>
        <use xlink:href="#cog" transform="rotate(292.50)"></use>
        <use xlink:href="#cog" transform="rotate(303.75)"></use>
        <use xlink:href="#cog" transform="rotate(315.00)"></use>
        <use xlink:href="#cog" transform="rotate(326.25)"></use>
        <use xlink:href="#cog" transform="rotate(337.50)"></use>
        <use xlink:href="#cog" transform="rotate(348.75)"></use>
      </g>
      <g id="SvgjsG1027">
        <polygon id="SvgjsPolygon1026" stroke="black" stroke-width="6" stroke-linejoin="round" points="-7,-42 0,-35 7,-42"></polygon>
        <use xlink:href="#mount" transform="rotate(72)"></use>
        <use xlink:href="#mount" transform="rotate(144)"></use>
        <use xlink:href="#mount" transform="rotate(216)"></use>
        <use xlink:href="#mount" transform="rotate(288)"></use>
      </g>
    </g>
    <mask id="SvgjsMask1025">
      <rect x="-60" y="-60" width="120" height="120" fill="white"></rect>
      <circle id="SvgjsCircle1024" cy="-40" r="3"></circle>
      <use xlink:href="#hole" transform="rotate(72)"></use>
      <use xlink:href="#hole" transform="rotate(144)"></use>
      <use xlink:href="#hole" transform="rotate(216)"></use>
      <use xlink:href="#hole" transform="rotate(288)"></use>
    </mask>
  </g>
  <path aria-label="U" transform="matrix(1.1188958,0,0,1.3531467,106.90401,-3.0479991)" style="fill:#c04828" d="m -30.914582,47.152116 c 0,-6.410851 0,-27.142255 0,-27.142255 h -9.981735 c 0,0 0,22.706465 0,27.142255 0,4.43579 -0.989404,8.475308 -7.250584,8.492265 -6.26118,0.01696 -7.308935,-4.147055 -7.308935,-8.492265 V 20.009861 h -9.981735 v 27.142255 c 0,6.425292 2.643496,15.679002 17.261495,15.679002 14.617999,0 17.261494,-9.268151 17.261494,-15.679002 z"></path>
</svg><style>@media (prefers-color-scheme: light) { :root { filter: none; } }
@media (prefers-color-scheme: dark) { :root { filter: none; } }
</style></svg>